<svg width="440" height="340" viewBox="0 0 440 340" xmlns="http://www.w3.org/2000/svg">
  <defs>
    <style>text { font-family: 'SF Mono', ui-monospace, monospace; }</style>
    <marker id="arr" markerWidth="8" markerHeight="8" refX="6" refY="3" orient="auto">
      <path d="M0,0 L0,6 L8,3 z" fill="#4a3570"/>
    </marker>
  </defs>
  <rect width="440" height="340" rx="8" fill="#0d1117"/>
  <!-- ÆLLI -->
  <rect x="140" y="20" width="160" height="44" rx="6" fill="#13111c" stroke="#4a3570" stroke-width="1"/>
  <text x="220" y="39" text-anchor="middle" fill="#c4b5fd" font-size="12">ÆLLI</text>
  <text x="220" y="54" text-anchor="middle" fill="#6b7280" font-size="10">orchestration brain</text>
  <!-- connector -->
  <line x1="220" y1="64" x2="220" y2="98" stroke="#4a3570" stroke-width="1" marker-end="url(#arr)"/>
  <text x="228" y="85" fill="#6b7280" font-size="9">A2A · /a2a/octowiz</text>
  <!-- Octowiz A2A Agent -->
  <rect x="110" y="100" width="220" height="56" rx="6" fill="#13111c" stroke="#4a3570" stroke-width="1"/>
  <text x="220" y="122" text-anchor="middle" fill="#c4b5fd" font-size="12">Octowiz A2A Agent</text>
  <text x="220" y="138" text-anchor="middle" fill="#6b7280" font-size="10">plan · review · observe · dispatch</text>
  <!-- connector -->
  <line x1="220" y1="156" x2="220" y2="190" stroke="#4a3570" stroke-width="1" marker-end="url(#arr)"/>
  <text x="228" y="178" fill="#6b7280" font-size="9">events / advice</text>
  <!-- Octowiz Bridge (focal) -->
  <rect x="90" y="192" width="260" height="56" rx="6" fill="#13111c" stroke="#7c3aed" stroke-width="2"/>
  <text x="220" y="214" text-anchor="middle" fill="#ede9fe" font-size="12" font-weight="bold">Octowiz Bridge</text>
  <text x="220" y="230" text-anchor="middle" fill="#c4b5fd" font-size="10">this repo · Claude Code plugin</text>
  <!-- connector -->
  <line x1="220" y1="248" x2="220" y2="282" stroke="#4a3570" stroke-width="1" marker-end="url(#arr)"/>
  <text x="228" y="270" fill="#6b7280" font-size="9">GET / PUT /v1/memory</text>
  <!-- LiteLLM -->
  <rect x="60" y="284" width="140" height="40" rx="6" fill="#13111c" stroke="#4a3570" stroke-width="1"/>
  <text x="130" y="300" text-anchor="middle" fill="#c4b5fd" font-size="11">LiteLLM</text>
  <text x="130" y="314" text-anchor="middle" fill="#6b7280" font-size="9">/v1/memory</text>
  <!-- connector LiteLLM → Skills -->
  <line x1="200" y1="304" x2="240" y2="304" stroke="#4a3570" stroke-width="1" marker-end="url(#arr)"/>
  <!-- Skills -->
  <rect x="242" y="284" width="138" height="40" rx="6" fill="#13111c" stroke="#4a3570" stroke-width="1"/>
  <text x="311" y="300" text-anchor="middle" fill="#c4b5fd" font-size="11">Skills</text>
  <text x="311" y="314" text-anchor="middle" fill="#6b7280" font-size="9">mattpocock · antfu optional</text>
</svg>
