<svg width="560" height="240" viewBox="0 0 560 240" xmlns="http://www.w3.org/2000/svg">
  <defs>
    <style>text { font-family: 'SF Mono', ui-monospace, monospace; }</style>
    <marker id="arr" markerWidth="8" markerHeight="8" refX="6" refY="3" orient="auto">
      <path d="M0,0 L0,6 L8,3 z" fill="#4a3570"/>
    </marker>
  </defs>
  <rect width="560" height="240" rx="8" fill="#0d1117"/>
  <!-- Center hub (focal) -->
  <rect x="200" y="96" width="160" height="48" rx="6" fill="#13111c" stroke="#7c3aed" stroke-width="2"/>
  <text x="280" y="116" text-anchor="middle" fill="#ede9fe" font-size="13" font-weight="bold">/octowiz</text>
  <text x="280" y="132" text-anchor="middle" fill="#c4b5fd" font-size="10">where are you?</text>
  <!-- A: top-left -->
  <line x1="205" y1="100" x2="130" y2="52" stroke="#4a3570" stroke-width="1" marker-end="url(#arr)"/>
  <rect x="20" y="20" width="108" height="46" rx="6" fill="#13111c" stroke="#4a3570" stroke-width="1"/>
  <text x="74" y="39" text-anchor="middle" fill="#c4b5fd" font-size="11">A · fresh idea</text>
  <text x="74" y="54" text-anchor="middle" fill="#6b7280" font-size="9">grill-me + prototype</text>
  <!-- B: bottom-left -->
  <line x1="205" y1="140" x2="130" y2="188" stroke="#4a3570" stroke-width="1" marker-end="url(#arr)"/>
  <rect x="20" y="174" width="108" height="46" rx="6" fill="#13111c" stroke="#4a3570" stroke-width="1"/>
  <text x="74" y="193" text-anchor="middle" fill="#c4b5fd" font-size="11">B · stress-test</text>
  <text x="74" y="208" text-anchor="middle" fill="#6b7280" font-size="9">grill-me</text>
  <!-- C: top-right -->
  <line x1="355" y1="100" x2="430" y2="52" stroke="#4a3570" stroke-width="1" marker-end="url(#arr)"/>
  <rect x="432" y="20" width="108" height="46" rx="6" fill="#13111c" stroke="#4a3570" stroke-width="1"/>
  <text x="486" y="39" text-anchor="middle" fill="#c4b5fd" font-size="11">C · implement</text>
  <text x="486" y="54" text-anchor="middle" fill="#6b7280" font-size="9">worktrees + TDD</text>
  <!-- D: bottom-right -->
  <line x1="355" y1="140" x2="430" y2="188" stroke="#4a3570" stroke-width="1" marker-end="url(#arr)"/>
  <rect x="432" y="174" width="108" height="46" rx="6" fill="#13111c" stroke="#4a3570" stroke-width="1"/>
  <text x="486" y="193" text-anchor="middle" fill="#c4b5fd" font-size="11">D · review</text>
  <text x="486" y="208" text-anchor="middle" fill="#6b7280" font-size="9">code-review</text>
</svg>
