<svg width="620" height="90" viewBox="0 0 620 90" xmlns="http://www.w3.org/2000/svg">
  <defs>
    <style>text { font-family: 'SF Mono', ui-monospace, monospace; }</style>
    <marker id="arr" markerWidth="8" markerHeight="8" refX="6" refY="3" orient="auto">
      <path d="M0,0 L0,6 L8,3 z" fill="#4a3570"/>
    </marker>
  </defs>
  <rect width="620" height="90" rx="8" fill="#0d1117"/>
  <!-- Step 1 -->
  <rect x="10" y="20" width="130" height="50" rx="6" fill="#13111c" stroke="#4a3570" stroke-width="1"/>
  <text x="75" y="42" text-anchor="middle" fill="#c4b5fd" font-size="11">1. Seed memory</text>
  <text x="75" y="57" text-anchor="middle" fill="#6b7280" font-size="9">octowiz-cache seed</text>
  <!-- arrow -->
  <line x1="140" y1="45" x2="164" y2="45" stroke="#4a3570" stroke-width="1" marker-end="url(#arr)"/>
  <!-- Step 2 -->
  <rect x="166" y="20" width="130" height="50" rx="6" fill="#13111c" stroke="#4a3570" stroke-width="1"/>
  <text x="231" y="42" text-anchor="middle" fill="#c4b5fd" font-size="11">2. Install plugins</text>
  <text x="231" y="57" text-anchor="middle" fill="#6b7280" font-size="9">octowiz · matt · antfu optional</text>
  <!-- arrow -->
  <line x1="296" y1="45" x2="320" y2="45" stroke="#4a3570" stroke-width="1" marker-end="url(#arr)"/>
  <!-- Step 3 -->
  <rect x="322" y="20" width="130" height="50" rx="6" fill="#13111c" stroke="#4a3570" stroke-width="1"/>
  <text x="387" y="42" text-anchor="middle" fill="#c4b5fd" font-size="11">3. Start session</text>
  <text x="387" y="57" text-anchor="middle" fill="#6b7280" font-size="9">ephemeral supervisor</text>
  <!-- arrow -->
  <line x1="452" y1="45" x2="476" y2="45" stroke="#4a3570" stroke-width="1" marker-end="url(#arr)"/>
  <!-- Step 4 (focal) -->
  <rect x="478" y="16" width="132" height="58" rx="6" fill="#13111c" stroke="#7c3aed" stroke-width="2"/>
  <text x="544" y="40" text-anchor="middle" fill="#ede9fe" font-size="12" font-weight="bold">4. /octowiz</text>
  <text x="544" y="56" text-anchor="middle" fill="#c4b5fd" font-size="9">ready to use</text>
  <text x="544" y="68" text-anchor="middle" fill="#6b7280" font-size="9">routes A / B / C / D</text>
</svg>
